<svg xmlns="http://www.w3.org/2000/svg" width="30" height="30" viewBox="0 0 30 30">
  <g id="icon_instagram" transform="translate(-670 -713)">
    <path id="icon_instagram-2" data-name="icon_instagram" d="M12.5,8.328a6.41,6.41,0,1,0,6.41,6.41A6.4,6.4,0,0,0,12.5,8.328Zm0,10.577a4.167,4.167,0,1,1,4.167-4.167A4.175,4.175,0,0,1,12.5,18.9ZM20.667,8.066a1.5,1.5,0,1,1-1.5-1.5A1.492,1.492,0,0,1,20.667,8.066Zm4.245,1.517a7.4,7.4,0,0,0-2.019-5.238,7.447,7.447,0,0,0-5.238-2.019c-2.064-.117-8.251-.117-10.315,0A7.437,7.437,0,0,0,2.1,4.339,7.423,7.423,0,0,0,.083,9.578c-.117,2.064-.117,8.251,0,10.315A7.4,7.4,0,0,0,2.1,25.13,7.457,7.457,0,0,0,7.34,27.15c2.064.117,8.251.117,10.315,0a7.4,7.4,0,0,0,5.238-2.019,7.447,7.447,0,0,0,2.019-5.238c.117-2.064.117-8.245,0-10.309ZM22.246,22.107a4.219,4.219,0,0,1-2.376,2.376c-1.646.653-5.551.5-7.369.5s-5.729.145-7.369-.5a4.219,4.219,0,0,1-2.376-2.376c-.653-1.646-.5-5.551-.5-7.369s-.145-5.729.5-7.369A4.219,4.219,0,0,1,5.131,4.992c1.646-.653,5.551-.5,7.369-.5s5.729-.145,7.369.5a4.219,4.219,0,0,1,2.376,2.376c.653,1.646.5,5.551.5,7.369S22.9,20.467,22.246,22.107Z" transform="translate(672.005 713.762)" fill="#181818"/>
    <rect id="長方形_98" data-name="長方形 98" width="30" height="30" transform="translate(670 713)" fill="none"/>
  </g>
</svg>
