<svg id="logo_icon" xmlns="http://www.w3.org/2000/svg" width="38" height="20.547" viewBox="0 0 38 20.547">
  <path id="パス_1" data-name="パス 1" d="M35.536,12.666l1.52-3.735.02-.049.035-.088h0A6.395,6.395,0,0,0,29.545.213L29.4.253,29.243.3a10.259,10.259,0,0,0-2.308,1.023l-.353.221-.118.077h0L.684,17.773h0a1.509,1.509,0,0,0,.868,2.774h0l17.853-.014,12.517-.01v-.008A10.355,10.355,0,0,0,35,20.151l.138-.038.143-.043h0a3.947,3.947,0,0,0,.246-7.41Z" transform="translate(0.003 -0.001)" fill="#f5e33c"/>
</svg>
