<svg xmlns="http://www.w3.org/2000/svg" width="160" height="33.767" viewBox="0 0 160 33.767">
  <g id="logo_02" transform="translate(0.003 -0.001)">
    <g id="RATIO">
      <path id="パス_1" data-name="パス 1" d="M58.28,20.815l2.493-6.138.033-.081.058-.145h0A10.5,10.5,0,0,0,48.455.349L48.22.416l-.26.079a16.807,16.807,0,0,0-3.786,1.681l-.58.364-.193.127h0L1.124,29.209h0a2.481,2.481,0,0,0,1.423,4.559h0l29.279-.023,20.528-.017v-.012a16.948,16.948,0,0,0,5.047-.6l.226-.062.235-.071h0a6.491,6.491,0,0,0,.4-12.178Z" fill="#f5e33c"/>
      <path id="パス_2" data-name="パス 2" d="M86.354,6.333,82.093,17.758,77.8,6.333H72.286L68.648,27.765h5.541l1.849-12.335,4.8,12.335h2.217l5.059-12.335,1.847,12.335h5.541L91.869,6.333Z"/>
      <path id="パス_3" data-name="パス 3" d="M118.1,9.142a10.854,10.854,0,0,0-3.613-2.3,13.056,13.056,0,0,0-9.157,0,10.869,10.869,0,0,0-5.919,14.261,10.54,10.54,0,0,0,5.934,5.741,13.056,13.056,0,0,0,9.157,0,10.789,10.789,0,0,0,3.607-2.3,10.536,10.536,0,0,0,2.354-3.441,10.748,10.748,0,0,0,.844-4.259,10.74,10.74,0,0,0-.844-4.259A10.567,10.567,0,0,0,118.1,9.142Zm-2.844,9.973a5.558,5.558,0,0,1-1.265,1.8,5.8,5.8,0,0,1-1.849,1.184,6.042,6.042,0,0,1-4.436,0,5.662,5.662,0,0,1-3.09-2.979,5.737,5.737,0,0,1,0-4.517,5.656,5.656,0,0,1,3.09-2.982,5.93,5.93,0,0,1,6.285,1.184,5.589,5.589,0,0,1,1.265,1.8,5.737,5.737,0,0,1,0,4.517Z"/>
      <path id="パス_4" data-name="パス 4" d="M134.3,19.379,129.13,6.333h-6.054l9.011,21.432h4.434l9.038-21.432H139.5Z"/>
      <path id="パス_5" data-name="パス 5" d="M160,11.051V6.333H147.8V27.765H160V23.046h-6.622v-3.7h6.252V14.631h-6.252v-3.58Z"/>
    </g>
  </g>
</svg>
