<svg xmlns="http://www.w3.org/2000/svg" width="30" height="30"><path data-name="icon_instagram" d="M14.505 9.09a6.41 6.41 0 1 0 6.41 6.41 6.4 6.4 0 0 0-6.41-6.41zm0 10.577a4.167 4.167 0 1 1 4.167-4.167 4.175 4.175 0 0 1-4.167 4.162zm8.167-10.839a1.5 1.5 0 1 1-1.5-1.5 1.492 1.492 0 0 1 1.5 1.5zm4.245 1.517a7.4 7.4 0 0 0-2.019-5.238 7.447 7.447 0 0 0-5.238-2.019c-2.064-.117-8.251-.117-10.315 0a7.437 7.437 0 0 0-5.24 2.013 7.423 7.423 0 0 0-2.017 5.239c-.117 2.064-.117 8.251 0 10.315a7.4 7.4 0 0 0 2.017 5.237 7.457 7.457 0 0 0 5.24 2.02c2.064.117 8.251.117 10.315 0a7.4 7.4 0 0 0 5.238-2.019 7.447 7.447 0 0 0 2.019-5.238c.117-2.064.117-8.245 0-10.309zm-2.666 12.524a4.219 4.219 0 0 1-2.376 2.376c-1.646.653-5.551.5-7.369.5s-5.729.145-7.369-.5a4.219 4.219 0 0 1-2.376-2.376c-.653-1.646-.5-5.551-.5-7.369s-.145-5.729.5-7.369a4.219 4.219 0 0 1 2.375-2.377c1.646-.653 5.551-.5 7.369-.5s5.729-.145 7.369.5A4.219 4.219 0 0 1 24.25 8.13c.653 1.646.5 5.551.5 7.369s.155 5.73-.499 7.37z" fill="#181818"/><path data-name="長方形 98" fill="none" d="M0 0h30v30H0z"/></svg>