<svg xmlns="http://www.w3.org/2000/svg" width="160" height="33.767"><path data-name="パス 1" d="m58.283 20.814 2.493-6.138.033-.081.058-.145A10.5 10.5 0 0 0 48.458.348l-.235.067-.26.079a16.807 16.807 0 0 0-3.786 1.681l-.58.364-.193.127L1.127 29.208a2.481 2.481 0 0 0 1.423 4.559l29.279-.023 20.528-.017v-.012a16.948 16.948 0 0 0 5.047-.6l.226-.062.235-.071a6.491 6.491 0 0 0 .4-12.178z" fill="#f5e33c"/><path data-name="パス 2" d="m86.357 6.332-4.261 11.425-4.293-11.425h-5.514l-3.638 21.432h5.541l1.849-12.335 4.8 12.335h2.217l5.059-12.335 1.847 12.335h5.541L91.872 6.332z"/><path data-name="パス 3" d="M118.103 9.141a10.854 10.854 0 0 0-3.613-2.3 13.056 13.056 0 0 0-9.157 0 10.869 10.869 0 0 0-5.919 14.261 10.54 10.54 0 0 0 5.934 5.741 13.056 13.056 0 0 0 9.157 0 10.789 10.789 0 0 0 3.607-2.3 10.536 10.536 0 0 0 2.354-3.441 10.748 10.748 0 0 0 .844-4.259 10.74 10.74 0 0 0-.844-4.259 10.567 10.567 0 0 0-2.363-3.443zm-2.844 9.973a5.558 5.558 0 0 1-1.265 1.8 5.8 5.8 0 0 1-1.849 1.184 6.042 6.042 0 0 1-4.436 0 5.662 5.662 0 0 1-3.09-2.979 5.737 5.737 0 0 1 0-4.517 5.656 5.656 0 0 1 3.09-2.982 5.93 5.93 0 0 1 6.285 1.184 5.589 5.589 0 0 1 1.265 1.8 5.737 5.737 0 0 1 0 4.517z"/><path data-name="パス 4" d="m134.303 19.378-5.17-13.046h-6.054l9.011 21.432h4.434l9.038-21.432h-6.059z"/><path data-name="パス 5" d="M160.003 11.05V6.332h-12.2v21.432h12.2v-4.719h-6.622v-3.7h6.252V14.63h-6.252v-3.58z"/></svg>